<?xml version="1.0" encoding="UTF-8"?>
<svg xmlns="http://www.w3.org/2000/svg" xmlns:xlink="http://www.w3.org/1999/xlink" width="128px" height="128px" viewBox="0 0 128 128" version="1.1">
<defs>
<linearGradient id="linear0" gradientUnits="userSpaceOnUse" x1="-356" y1="238" x2="-252" y2="238" spreadMethod="reflect" gradientTransform="matrix(1,0,0,1,368,-172)">
<stop offset="0" style="stop-color:rgb(10.196079%,37.254903%,70.588237%);stop-opacity:1;"/>
<stop offset="0.0384615" style="stop-color:rgb(38.431373%,62.7451%,91.764706%);stop-opacity:1;"/>
<stop offset="0.0768555" style="stop-color:rgb(10.980392%,44.313726%,84.705883%);stop-opacity:1;"/>
<stop offset="0.923077" style="stop-color:rgb(10.980392%,44.313726%,84.705883%);stop-opacity:1;"/>
<stop offset="0.961538" style="stop-color:rgb(38.431373%,62.7451%,91.764706%);stop-opacity:1;"/>
<stop offset="1" style="stop-color:rgb(10.196079%,37.254903%,70.588237%);stop-opacity:1;"/>
</linearGradient>
<filter id="alpha" filterUnits="objectBoundingBox" x="0%" y="0%" width="100%" height="100%">
  <feColorMatrix type="matrix" in="SourceGraphic" values="0 0 0 0 1 0 0 0 0 1 0 0 0 0 1 0 0 0 1 0"/>
</filter>
<mask id="mask0">
  <g filter="url(#alpha)">
<rect x="0" y="0" width="128" height="128" style="fill:rgb(0%,0%,0%);fill-opacity:0.301;stroke:none;"/>
  </g>
</mask>
<clipPath id="clip2">
  <rect x="0" y="0" width="30" height="5"/>
</clipPath>
<g id="surface3128" clip-path="url(#clip2)">
<path style=" stroke:none;fill-rule:nonzero;fill:rgb(100%,100%,100%);fill-opacity:1;" d="M 7.582031 0.0585938 C 5.066406 -0.179688 2.648438 0.292969 -0.0117188 1.726562 L -0.0117188 2.953125 C 2.765625 1.382812 5.160156 1.015625 7.457031 1.234375 C 9.75 1.457031 11.941406 2.277344 14.222656 3.105469 C 18.777344 4.757812 23.75 6.441406 30 2.953125 L 29.996094 1.726562 C 23.570312 5.304688 19.203125 3.636719 14.660156 1.988281 C 12.386719 1.164062 10.09375 0.300781 7.582031 0.0585938 Z M 7.582031 0.0585938 "/>
</g>
<pattern id="pattern0" patternUnits="userSpaceOnUse" width="30" height="5" patternTransform="matrix(1.002201,0,0,1.036116,376,-156)">
<use xlink:href="#surface3128"/>
</pattern>
<clipPath id="clip1">
  <rect x="0" y="0" width="192" height="152"/>
</clipPath>
<g id="surface3130" clip-path="url(#clip1)">
<path style=" stroke:none;fill-rule:nonzero;fill:url(#pattern0);" d="M 28 28 L 116 28 C 120.417969 28 124 31.582031 124 36 L 124 120 C 124 124.417969 120.417969 128 116 128 L 28 128 C 23.582031 128 20 124.417969 20 120 L 20 36 C 20 31.582031 23.582031 28 28 28 Z M 28 28 "/>
</g>
</defs>
<g id="surface3109">
<path style=" stroke:none;fill-rule:nonzero;fill:url(#linear0);" d="M 20 16 L 108 16 C 112.417969 16 116 19.582031 116 24 L 116 108 C 116 112.417969 112.417969 116 108 116 L 20 116 C 15.582031 116 12 112.417969 12 108 L 12 24 C 12 19.582031 15.582031 16 20 16 Z M 20 16 "/>
<path style=" stroke:none;fill-rule:nonzero;fill:rgb(20.784314%,51.764709%,89.411765%);fill-opacity:1;" d="M 20 12 L 108 12 C 112.417969 12 116 15.582031 116 20 L 116 104 C 116 108.417969 112.417969 112 108 112 L 20 112 C 15.582031 112 12 108.417969 12 104 L 12 20 C 12 15.582031 15.582031 12 20 12 Z M 20 12 "/>
<use xlink:href="#surface3130" transform="matrix(1,0,0,1,-8,-16)" mask="url(#mask0)"/>
<path style=" stroke:none;fill-rule:nonzero;fill:rgb(36.862746%,36.078432%,39.215687%);fill-opacity:1;" d="M 64 28 C 59.574219 28 56 31.585938 56 36 C 56 39.332031 58.09375 42.082031 61 43.28125 L 61 46 L 49 46 C 48.46875 46 48 46.433594 48 47 L 48 50 C 48 50.566406 48.433594 51 49 51 L 61 51 L 61 88 C 61 89.027344 59.285156 89.046875 58.3125 89.15625 C 56.886719 89.148438 56.019531 88.785156 54.65625 88.40625 C 51.574219 87.503906 48.636719 86.257812 45.8125 84.75 C 44.625 84.089844 43.464844 83.449219 42.40625 82.59375 C 41.949219 82.203125 41.421875 81.644531 41.46875 81 C 41.53125 80.511719 41.777344 79.996094 42.3125 79.90625 C 42.796875 79.828125 43.230469 80.089844 43.65625 80.25 C 44.023438 80.410156 44.277344 79.960938 44.21875 79.65625 C 44.160156 78.851562 43.886719 78.105469 43.46875 77.40625 C 42.601562 75.976562 41.261719 74.914062 39.875 74 C 38.394531 73.054688 36.8125 72.011719 35.875 70.5 C 35.6875 70.21875 35.480469 69.757812 35.0625 69.90625 C 34.480469 70.09375 34.160156 70.664062 33.875 71.15625 C 33.074219 72.679688 32.675781 74.328125 32.3125 76 C 32.015625 77.332031 31.957031 78.738281 32.0625 80.09375 C 32.171875 81.449219 32.261719 82.828125 32.8125 84.09375 C 33.160156 84.925781 33.769531 85.597656 34.375 86.25 C 34.761719 85.839844 35.167969 85.402344 35.5625 85 C 36.074219 84.484375 36.71875 84.148438 37.46875 84.25 C 38.492188 84.382812 39.414062 85 40.21875 85.59375 C 41.351562 86.472656 42.410156 87.394531 43.5625 88.25 C 45.386719 89.644531 47.402344 90.664062 49.46875 91.65625 C 51.191406 92.457031 52.960938 93.253906 54.75 93.90625 C 55.070312 94.046875 55.425781 94.039062 55.75 94.15625 C 58.96875 95.496094 61.679688 97.050781 63.90625 99.84375 C 63.910156 99.882812 63.902344 99.964844 63.90625 100 C 63.933594 99.96875 63.972656 99.9375 64 99.90625 C 64.027344 99.9375 64.066406 99.96875 64.09375 100 C 64.109375 99.921875 64.078125 99.828125 64.09375 99.75 C 66.3125 96.992188 69.050781 95.488281 72.25 94.15625 C 72.574219 94.039062 72.929688 94.046875 73.25 93.90625 C 75.039062 93.253906 76.808594 92.457031 78.53125 91.65625 C 80.597656 90.664062 82.613281 89.644531 84.4375 88.25 C 85.589844 87.394531 86.648438 86.472656 87.78125 85.59375 C 88.585938 85 89.507812 84.382812 90.53125 84.25 C 91.28125 84.148438 91.925781 84.484375 92.4375 85 C 92.832031 85.402344 93.238281 85.839844 93.625 86.25 C 94.230469 85.597656 94.839844 84.925781 95.1875 84.09375 C 95.738281 82.828125 95.828125 81.449219 95.9375 80.09375 C 96.042969 78.738281 95.984375 77.332031 95.6875 76 C 95.324219 74.328125 94.925781 72.679688 94.125 71.15625 C 93.839844 70.664062 93.519531 70.09375 92.9375 69.90625 C 92.519531 69.757812 92.3125 70.21875 92.125 70.5 C 91.1875 72.011719 89.605469 73.054688 88.125 74 C 86.738281 74.914062 85.398438 75.976562 84.53125 77.40625 C 84.113281 78.105469 83.839844 78.851562 83.78125 79.65625 C 83.722656 79.960938 83.976562 80.410156 84.34375 80.25 C 84.769531 80.089844 85.203125 79.828125 85.6875 79.90625 C 86.222656 79.996094 86.46875 80.511719 86.53125 81 C 86.578125 81.644531 86.050781 82.203125 85.59375 82.59375 C 84.535156 83.449219 83.375 84.089844 82.1875 84.75 C 79.363281 86.257812 76.425781 87.503906 73.34375 88.40625 C 71.980469 88.785156 71.113281 89.148438 69.6875 89.15625 C 68.460938 89.375 67 88.710938 67 88 L 67 51 L 79 51 C 79.460938 51 80 50.597656 80 50 L 80 47 C 80 46.417969 79.53125 46 79 46 L 67 46 L 67 43.28125 C 69.90625 42.082031 72 39.332031 72 36 C 72 31.585938 68.425781 28 64 28 Z M 63.84375 31.90625 C 65.992188 31.90625 67.75 33.605469 67.75 35.75 C 67.75 37.894531 65.992188 39.65625 63.84375 39.65625 C 61.695312 39.65625 59.90625 37.894531 59.90625 35.75 C 59.90625 33.605469 61.695312 31.90625 63.84375 31.90625 Z M 63.84375 31.90625 "/>
<path style=" stroke:none;fill-rule:nonzero;fill:rgb(96.470588%,96.078432%,95.686275%);fill-opacity:1;" d="M 64 26 C 59.574219 26 56 29.585938 56 34 C 56 37.332031 58.09375 40.082031 61 41.28125 L 61 44 L 49 44 C 48.46875 44 48 44.433594 48 45 L 48 48 C 48 48.566406 48.433594 49 49 49 L 61 49 L 61 86 C 61 87.027344 59.285156 87.046875 58.3125 87.15625 C 56.886719 87.148438 56.019531 86.785156 54.65625 86.40625 C 51.574219 85.503906 48.636719 84.257812 45.8125 82.75 C 44.625 82.089844 43.464844 81.449219 42.40625 80.59375 C 41.949219 80.203125 41.421875 79.644531 41.46875 79 C 41.53125 78.511719 41.777344 77.996094 42.3125 77.90625 C 42.796875 77.828125 43.230469 78.089844 43.65625 78.25 C 44.023438 78.410156 44.277344 77.960938 44.21875 77.65625 C 44.160156 76.851562 43.886719 76.105469 43.46875 75.40625 C 42.601562 73.976562 41.261719 72.914062 39.875 72 C 38.394531 71.054688 36.8125 70.011719 35.875 68.5 C 35.6875 68.21875 35.480469 67.757812 35.0625 67.90625 C 34.480469 68.09375 34.160156 68.664062 33.875 69.15625 C 33.074219 70.679688 32.675781 72.328125 32.3125 74 C 32.015625 75.332031 31.957031 76.738281 32.0625 78.09375 C 32.171875 79.449219 32.261719 80.828125 32.8125 82.09375 C 33.160156 82.925781 33.769531 83.597656 34.375 84.25 C 34.761719 83.839844 35.167969 83.402344 35.5625 83 C 36.074219 82.484375 36.71875 82.148438 37.46875 82.25 C 38.492188 82.382812 39.414062 83 40.21875 83.59375 C 41.351562 84.472656 42.410156 85.394531 43.5625 86.25 C 45.386719 87.644531 47.402344 88.664062 49.46875 89.65625 C 51.191406 90.457031 52.960938 91.253906 54.75 91.90625 C 55.070312 92.046875 55.425781 92.039062 55.75 92.15625 C 58.96875 93.496094 61.679688 95.050781 63.90625 97.84375 C 63.910156 97.882812 63.902344 97.964844 63.90625 98 C 63.933594 97.96875 63.972656 97.9375 64 97.90625 C 64.027344 97.9375 64.066406 97.96875 64.09375 98 C 64.109375 97.921875 64.078125 97.828125 64.09375 97.75 C 66.3125 94.992188 69.050781 93.488281 72.25 92.15625 C 72.574219 92.039062 72.929688 92.046875 73.25 91.90625 C 75.039062 91.253906 76.808594 90.457031 78.53125 89.65625 C 80.597656 88.664062 82.613281 87.644531 84.4375 86.25 C 85.589844 85.394531 86.648438 84.472656 87.78125 83.59375 C 88.585938 83 89.507812 82.382812 90.53125 82.25 C 91.28125 82.148438 91.925781 82.484375 92.4375 83 C 92.832031 83.402344 93.238281 83.839844 93.625 84.25 C 94.230469 83.597656 94.839844 82.925781 95.1875 82.09375 C 95.738281 80.828125 95.832031 79.449219 95.9375 78.09375 C 96.042969 76.738281 95.984375 75.332031 95.6875 74 C 95.328125 72.328125 94.925781 70.679688 94.125 69.15625 C 93.839844 68.664062 93.519531 68.09375 92.9375 67.90625 C 92.519531 67.757812 92.3125 68.21875 92.125 68.5 C 91.1875 70.011719 89.605469 71.054688 88.125 72 C 86.738281 72.914062 85.398438 73.976562 84.53125 75.40625 C 84.113281 76.105469 83.839844 76.851562 83.78125 77.65625 C 83.722656 77.960938 83.976562 78.410156 84.34375 78.25 C 84.769531 78.089844 85.203125 77.828125 85.6875 77.90625 C 86.222656 77.996094 86.46875 78.511719 86.53125 79 C 86.578125 79.644531 86.050781 80.203125 85.59375 80.59375 C 84.535156 81.449219 83.375 82.089844 82.1875 82.75 C 79.363281 84.257812 76.425781 85.503906 73.34375 86.40625 C 71.980469 86.785156 71.113281 87.148438 69.6875 87.15625 C 68.460938 87.375 67 86.710938 67 86 L 67 49 L 79 49 C 79.460938 49 80 48.597656 80 48 L 80 45 C 80 44.417969 79.53125 44 79 44 L 67 44 L 67 41.28125 C 69.90625 40.082031 72 37.332031 72 34 C 72 29.585938 68.425781 26 64 26 Z M 63.84375 29.90625 C 65.992188 29.90625 67.75 31.605469 67.75 33.75 C 67.75 35.894531 65.992188 37.65625 63.84375 37.65625 C 61.695312 37.65625 59.90625 35.894531 59.90625 33.75 C 59.90625 31.605469 61.695312 29.90625 63.84375 29.90625 Z M 63.84375 29.90625 "/>
<path style=" stroke:none;fill-rule:nonzero;fill:rgb(36.862746%,36.078432%,39.215687%);fill-opacity:1;" d="M 49.449219 35.589844 C 50.03125 36.257812 50 37.308594 49.378906 37.941406 L 46.992188 40.359375 C 46.453125 40.90625 45.628906 40.964844 45.03125 40.5 L 40.269531 36.785156 L 43.402344 42.164062 C 43.792969 42.835938 43.6875 43.714844 43.152344 44.257812 L 37.976562 49.507812 C 37.496094 49.992188 36.789062 50.101562 36.207031 49.777344 L 35.351562 49.300781 L 35.738281 50.304688 C 35.984375 50.941406 35.835938 51.679688 35.367188 52.152344 L 33.742188 53.800781 C 33.121094 54.429688 32.148438 54.402344 31.5625 53.734375 L 19.707031 40.167969 L 37.59375 22.023438 Z M 49.449219 35.589844 "/>
<path style=" stroke:none;fill-rule:nonzero;fill:rgb(36.862746%,36.078432%,39.215687%);fill-opacity:1;" d="M 17.5 37.640625 L 14.070312 33.714844 C 13.789062 33.394531 13.636719 32.964844 13.652344 32.527344 C 13.664062 32.085938 13.839844 31.667969 14.136719 31.367188 L 17.601562 27.851562 C 18.269531 27.171875 18.613281 26.21875 18.542969 25.234375 C 18.46875 24.253906 17.996094 23.371094 17.238281 22.816406 C 7.558594 15.726562 6.667969 14.707031 6.375 14.371094 C 4.269531 11.964844 4.382812 8.160156 6.621094 5.886719 C 8.863281 3.613281 12.394531 3.730469 14.496094 6.132812 C 14.789062 6.46875 15.679688 7.488281 21.664062 18.324219 C 22.132812 19.167969 22.921875 19.734375 23.828125 19.867188 C 24.738281 20.003906 25.640625 19.695312 26.308594 19.019531 L 29.773438 15.503906 C 30.394531 14.875 31.371094 14.90625 31.953125 15.570312 L 35.386719 19.5 Z M 12.117188 8.746094 C 11.289062 7.800781 9.910156 7.757812 9.035156 8.648438 C 8.15625 9.539062 8.113281 11.027344 8.9375 11.96875 C 9.761719 12.914062 11.140625 12.957031 12.019531 12.066406 C 12.898438 11.175781 12.941406 9.6875 12.117188 8.746094 Z M 12.117188 8.746094 "/>
<path style="fill-rule:nonzero;fill:rgb(96.470588%,96.078432%,95.686275%);fill-opacity:1;stroke-width:9.925757;stroke-linecap:butt;stroke-linejoin:miter;stroke:rgb(46.666667%,46.27451%,48.235294%);stroke-opacity:1;stroke-miterlimit:4;" d="M 440.496237 173.095865 C 446.358224 167.25104 446.344913 157.743126 440.499512 151.884086 L 417.98354 129.373277 C 412.891694 124.292295 404.90318 123.521232 398.942107 127.562525 L 351.607787 159.759055 L 383.595609 112.101448 C 387.59451 106.130754 386.793238 98.184657 381.739126 93.140779 L 332.898294 44.299709 C 328.410193 39.812389 321.523321 38.641002 315.797133 41.392602 L 307.345558 45.469962 L 311.400281 36.475758 C 313.95117 30.787339 312.720707 24.12532 308.346935 19.71333 L 292.995929 4.396176 C 287.150528 -1.462864 277.65936 -1.449045 271.797373 4.39578 L 152.740114 123.436571 L 321.437851 292.172636 Z M 440.496237 173.095865 " transform="matrix(0.100427,0.00313461,0.00314614,-0.108467,3.963843,50.281067)"/>
<path style="fill-rule:nonzero;fill:rgb(96.470588%,96.078432%,95.686275%);fill-opacity:1;stroke-width:9.925757;stroke-linecap:butt;stroke-linejoin:miter;stroke:rgb(46.666667%,46.27451%,48.235294%);stroke-opacity:1;stroke-miterlimit:4;" d="M 130.574051 145.628462 L 96.081932 180.104831 C 93.271468 182.90468 91.712991 186.713071 91.704456 190.710309 C 91.697049 194.671565 93.288589 198.498963 96.078656 201.31661 L 128.778321 233.989383 C 135.076531 240.293669 138.149201 248.989662 137.171281 257.856703 C 136.194488 266.687762 131.320887 274.505873 123.818299 279.330925 C 27.732136 340.549856 18.77751 349.510496 15.845953 352.450899 C -5.274774 373.556585 -5.263129 407.949687 15.85781 429.051673 C 36.977622 450.18964 71.324813 450.137862 92.444413 429.068156 C 95.375971 426.127753 104.330596 417.167114 165.568507 321.088527 C 170.354241 313.591998 178.169973 308.703969 187.029806 307.735557 C 195.928501 306.768269 204.623227 309.828583 210.883702 316.095765 L 243.58224 348.80452 C 249.42764 354.66356 258.95767 354.650864 264.819657 348.806039 L 299.272914 314.328547 Z M 70.060269 404.832515 C 61.788829 413.092631 48.33043 413.09984 40.071175 404.830172 C 31.77306 396.559382 31.804891 383.127316 40.077458 374.831219 C 48.348897 366.571103 61.768435 366.562771 70.066551 374.833562 C 78.325805 383.103229 78.332836 396.536418 70.060269 404.832515 Z M 70.060269 404.832515 " transform="matrix(0.100427,0.00313461,0.00314614,-0.108467,3.963843,50.281067)"/>
</g>
</svg>
