<?xml version="1.0" encoding="UTF-8"?>
<svg xmlns="http://www.w3.org/2000/svg" xmlns:xlink="http://www.w3.org/1999/xlink" width="128px" height="128px" viewBox="0 0 128 128" version="1.1">
<defs>
<linearGradient id="linear0" gradientUnits="userSpaceOnUse" x1="88.595886" y1="-449.394012" x2="536.595886" y2="-449.394012" gradientTransform="matrix(0.232143,0,0,0.328947,-8.566925,263.826965)">
<stop offset="0" style="stop-color:rgb(58.039218%,57.647061%,56.470591%);stop-opacity:1;"/>
<stop offset="1" style="stop-color:rgb(40.784314%,40.392157%,41.960785%);stop-opacity:1;"/>
</linearGradient>
</defs>
<g id="surface3211">
<path style=" stroke:none;fill-rule:nonzero;fill:url(#linear0);" d="M 20 16 L 108 16 C 112.417969 16 116 19.582031 116 24 L 116 108 C 116 112.417969 112.417969 116 108 116 L 20 116 C 15.582031 116 12 112.417969 12 108 L 12 24 C 12 19.582031 15.582031 16 20 16 Z M 20 16 "/>
<path style=" stroke:none;fill-rule:nonzero;fill:rgb(20.784314%,51.764709%,89.411765%);fill-opacity:1;" d="M 20 12 L 108 12 C 112.417969 12 116 15.582031 116 20 L 116 104 C 116 108.417969 112.417969 112 108 112 L 20 112 C 15.582031 112 12 108.417969 12 104 L 12 20 C 12 15.582031 15.582031 12 20 12 Z M 20 12 "/>
<path style=" stroke:none;fill-rule:nonzero;fill:rgb(36.862746%,36.078432%,39.215687%);fill-opacity:1;" d="M 64 28 C 59.574219 28 56 31.585938 56 36 C 56 39.332031 58.09375 42.082031 61 43.28125 L 61 46 L 49 46 C 48.46875 46 48 46.433594 48 47 L 48 50 C 48 50.566406 48.433594 51 49 51 L 61 51 L 61 88 C 61 89.027344 59.285156 89.046875 58.3125 89.15625 C 56.886719 89.148438 56.019531 88.785156 54.65625 88.40625 C 51.574219 87.503906 48.636719 86.257812 45.8125 84.75 C 44.625 84.089844 43.464844 83.449219 42.40625 82.59375 C 41.949219 82.203125 41.421875 81.644531 41.46875 81 C 41.53125 80.511719 41.777344 79.996094 42.3125 79.90625 C 42.796875 79.828125 43.230469 80.089844 43.65625 80.25 C 44.023438 80.410156 44.277344 79.960938 44.21875 79.65625 C 44.160156 78.851562 43.886719 78.105469 43.46875 77.40625 C 42.601562 75.976562 41.261719 74.914062 39.875 74 C 38.394531 73.054688 36.8125 72.011719 35.875 70.5 C 35.6875 70.21875 35.480469 69.757812 35.0625 69.90625 C 34.480469 70.09375 34.160156 70.664062 33.875 71.15625 C 33.074219 72.679688 32.675781 74.328125 32.3125 76 C 32.015625 77.332031 31.957031 78.738281 32.0625 80.09375 C 32.171875 81.449219 32.261719 82.828125 32.8125 84.09375 C 33.160156 84.925781 33.769531 85.597656 34.375 86.25 C 34.761719 85.839844 35.167969 85.402344 35.5625 85 C 36.074219 84.484375 36.71875 84.148438 37.46875 84.25 C 38.492188 84.382812 39.414062 85 40.21875 85.59375 C 41.351562 86.472656 42.410156 87.394531 43.5625 88.25 C 45.386719 89.644531 47.402344 90.664062 49.46875 91.65625 C 51.191406 92.457031 52.960938 93.253906 54.75 93.90625 C 55.070312 94.046875 55.425781 94.039062 55.75 94.15625 C 58.96875 95.496094 61.679688 97.050781 63.90625 99.84375 C 63.910156 99.882812 63.902344 99.964844 63.90625 100 C 63.933594 99.96875 63.972656 99.9375 64 99.90625 C 64.027344 99.9375 64.066406 99.96875 64.09375 100 C 64.109375 99.921875 64.078125 99.828125 64.09375 99.75 C 66.3125 96.992188 69.050781 95.488281 72.25 94.15625 C 72.574219 94.039062 72.929688 94.046875 73.25 93.90625 C 75.039062 93.253906 76.808594 92.457031 78.53125 91.65625 C 80.597656 90.664062 82.613281 89.644531 84.4375 88.25 C 85.589844 87.394531 86.648438 86.472656 87.78125 85.59375 C 88.585938 85 89.507812 84.382812 90.53125 84.25 C 91.28125 84.148438 91.925781 84.484375 92.4375 85 C 92.832031 85.402344 93.238281 85.839844 93.625 86.25 C 94.230469 85.597656 94.839844 84.925781 95.1875 84.09375 C 95.738281 82.828125 95.828125 81.449219 95.9375 80.09375 C 96.042969 78.738281 95.984375 77.332031 95.6875 76 C 95.324219 74.328125 94.925781 72.679688 94.125 71.15625 C 93.839844 70.664062 93.519531 70.09375 92.9375 69.90625 C 92.519531 69.757812 92.3125 70.21875 92.125 70.5 C 91.1875 72.011719 89.605469 73.054688 88.125 74 C 86.738281 74.914062 85.398438 75.976562 84.53125 77.40625 C 84.113281 78.105469 83.839844 78.851562 83.78125 79.65625 C 83.722656 79.960938 83.976562 80.410156 84.34375 80.25 C 84.769531 80.089844 85.203125 79.828125 85.6875 79.90625 C 86.222656 79.996094 86.46875 80.511719 86.53125 81 C 86.578125 81.644531 86.050781 82.203125 85.59375 82.59375 C 84.535156 83.449219 83.375 84.089844 82.1875 84.75 C 79.363281 86.257812 76.425781 87.503906 73.34375 88.40625 C 71.980469 88.785156 71.113281 89.148438 69.6875 89.15625 C 68.460938 89.375 67 88.710938 67 88 L 67 51 L 79 51 C 79.460938 51 80 50.597656 80 50 L 80 47 C 80 46.417969 79.53125 46 79 46 L 67 46 L 67 43.28125 C 69.90625 42.082031 72 39.332031 72 36 C 72 31.585938 68.425781 28 64 28 Z M 63.84375 31.90625 C 65.992188 31.90625 67.75 33.605469 67.75 35.75 C 67.75 37.894531 65.992188 39.65625 63.84375 39.65625 C 61.695312 39.65625 59.90625 37.894531 59.90625 35.75 C 59.90625 33.605469 61.695312 31.90625 63.84375 31.90625 Z M 63.84375 31.90625 "/>
<path style=" stroke:none;fill-rule:nonzero;fill:rgb(96.470588%,96.078432%,95.686275%);fill-opacity:1;" d="M 64 26 C 59.574219 26 56 29.585938 56 34 C 56 37.332031 58.09375 40.082031 61 41.28125 L 61 44 L 49 44 C 48.46875 44 48 44.433594 48 45 L 48 48 C 48 48.566406 48.433594 49 49 49 L 61 49 L 61 86 C 61 87.027344 59.285156 87.046875 58.3125 87.15625 C 56.886719 87.148438 56.019531 86.785156 54.65625 86.40625 C 51.574219 85.503906 48.636719 84.257812 45.8125 82.75 C 44.625 82.089844 43.464844 81.449219 42.40625 80.59375 C 41.949219 80.203125 41.421875 79.644531 41.46875 79 C 41.53125 78.511719 41.777344 77.996094 42.3125 77.90625 C 42.796875 77.828125 43.230469 78.089844 43.65625 78.25 C 44.023438 78.410156 44.277344 77.960938 44.21875 77.65625 C 44.160156 76.851562 43.886719 76.105469 43.46875 75.40625 C 42.601562 73.976562 41.261719 72.914062 39.875 72 C 38.394531 71.054688 36.8125 70.011719 35.875 68.5 C 35.6875 68.21875 35.480469 67.757812 35.0625 67.90625 C 34.480469 68.09375 34.160156 68.664062 33.875 69.15625 C 33.074219 70.679688 32.675781 72.328125 32.3125 74 C 32.015625 75.332031 31.957031 76.738281 32.0625 78.09375 C 32.171875 79.449219 32.261719 80.828125 32.8125 82.09375 C 33.160156 82.925781 33.769531 83.597656 34.375 84.25 C 34.761719 83.839844 35.167969 83.402344 35.5625 83 C 36.074219 82.484375 36.71875 82.148438 37.46875 82.25 C 38.492188 82.382812 39.414062 83 40.21875 83.59375 C 41.351562 84.472656 42.410156 85.394531 43.5625 86.25 C 45.386719 87.644531 47.402344 88.664062 49.46875 89.65625 C 51.191406 90.457031 52.960938 91.253906 54.75 91.90625 C 55.070312 92.046875 55.425781 92.039062 55.75 92.15625 C 58.96875 93.496094 61.679688 95.050781 63.90625 97.84375 C 63.910156 97.882812 63.902344 97.964844 63.90625 98 C 63.933594 97.96875 63.972656 97.9375 64 97.90625 C 64.027344 97.9375 64.066406 97.96875 64.09375 98 C 64.109375 97.921875 64.078125 97.828125 64.09375 97.75 C 66.3125 94.992188 69.050781 93.488281 72.25 92.15625 C 72.574219 92.039062 72.929688 92.046875 73.25 91.90625 C 75.039062 91.253906 76.808594 90.457031 78.53125 89.65625 C 80.597656 88.664062 82.613281 87.644531 84.4375 86.25 C 85.589844 85.394531 86.648438 84.472656 87.78125 83.59375 C 88.585938 83 89.507812 82.382812 90.53125 82.25 C 91.28125 82.148438 91.925781 82.484375 92.4375 83 C 92.832031 83.402344 93.238281 83.839844 93.625 84.25 C 94.230469 83.597656 94.839844 82.925781 95.1875 82.09375 C 95.738281 80.828125 95.832031 79.449219 95.9375 78.09375 C 96.042969 76.738281 95.984375 75.332031 95.6875 74 C 95.328125 72.328125 94.925781 70.679688 94.125 69.15625 C 93.839844 68.664062 93.519531 68.09375 92.9375 67.90625 C 92.519531 67.757812 92.3125 68.21875 92.125 68.5 C 91.1875 70.011719 89.605469 71.054688 88.125 72 C 86.738281 72.914062 85.398438 73.976562 84.53125 75.40625 C 84.113281 76.105469 83.839844 76.851562 83.78125 77.65625 C 83.722656 77.960938 83.976562 78.410156 84.34375 78.25 C 84.769531 78.089844 85.203125 77.828125 85.6875 77.90625 C 86.222656 77.996094 86.46875 78.511719 86.53125 79 C 86.578125 79.644531 86.050781 80.203125 85.59375 80.59375 C 84.535156 81.449219 83.375 82.089844 82.1875 82.75 C 79.363281 84.257812 76.425781 85.503906 73.34375 86.40625 C 71.980469 86.785156 71.113281 87.148438 69.6875 87.15625 C 68.460938 87.375 67 86.710938 67 86 L 67 49 L 79 49 C 79.460938 49 80 48.597656 80 48 L 80 45 C 80 44.417969 79.53125 44 79 44 L 67 44 L 67 41.28125 C 69.90625 40.082031 72 37.332031 72 34 C 72 29.585938 68.425781 26 64 26 Z M 63.84375 29.90625 C 65.992188 29.90625 67.75 31.605469 67.75 33.75 C 67.75 35.894531 65.992188 37.65625 63.84375 37.65625 C 61.695312 37.65625 59.90625 35.894531 59.90625 33.75 C 59.90625 31.605469 61.695312 29.90625 63.84375 29.90625 Z M 63.84375 29.90625 "/>
<path style=" stroke:none;fill-rule:nonzero;fill:rgb(36.862746%,36.078432%,39.215687%);fill-opacity:1;" d="M 44.703125 35.460938 C 45.226562 36.0625 45.199219 37.007812 44.644531 37.574219 L 42.511719 39.753906 C 42.027344 40.246094 41.292969 40.296875 40.757812 39.878906 L 36.503906 36.535156 L 39.300781 41.375 C 39.652344 41.980469 39.558594 42.769531 39.078125 43.261719 L 34.453125 47.984375 C 34.023438 48.421875 33.390625 48.515625 32.871094 48.226562 L 32.109375 47.796875 L 32.453125 48.703125 C 32.671875 49.273438 32.539062 49.9375 32.125 50.363281 L 30.671875 51.847656 C 30.117188 52.414062 29.242188 52.386719 28.722656 51.785156 L 18.128906 39.578125 L 34.113281 23.253906 Z M 44.703125 35.460938 "/>
<path style=" stroke:none;fill-rule:nonzero;fill:rgb(36.862746%,36.078432%,39.215687%);fill-opacity:1;" d="M 16.15625 37.308594 L 13.089844 33.773438 C 12.839844 33.484375 12.707031 33.101562 12.714844 32.703125 C 12.726562 32.308594 12.882812 31.933594 13.152344 31.660156 L 16.246094 28.496094 C 16.84375 27.886719 17.148438 27.03125 17.085938 26.144531 C 17.023438 25.261719 16.597656 24.464844 15.921875 23.964844 C 7.273438 17.589844 6.476562 16.671875 6.214844 16.367188 C 4.335938 14.203125 4.433594 10.78125 6.433594 8.734375 C 8.4375 6.691406 11.59375 6.792969 13.46875 8.957031 C 13.730469 9.257812 14.53125 10.175781 19.878906 19.925781 C 20.296875 20.6875 21 21.191406 21.8125 21.316406 C 22.625 21.4375 23.429688 21.160156 24.027344 20.550781 L 27.125 17.386719 C 27.679688 16.820312 28.550781 16.847656 29.070312 17.449219 L 32.140625 20.984375 Z M 11.34375 11.304688 C 10.609375 10.457031 9.375 10.417969 8.589844 11.21875 C 7.804688 12.019531 7.765625 13.359375 8.503906 14.207031 C 9.242188 15.054688 10.472656 15.09375 11.257812 14.292969 C 12.042969 13.492188 12.082031 12.15625 11.34375 11.304688 Z M 11.34375 11.304688 "/>
<path style="fill-rule:nonzero;fill:rgb(96.470588%,96.078432%,95.686275%);fill-opacity:1;stroke-width:9.925757;stroke-linecap:butt;stroke-linejoin:miter;stroke:rgb(46.666667%,46.27451%,48.235294%);stroke-opacity:1;stroke-miterlimit:4;" d="M 440.477658 173.100034 C 446.359973 167.232515 446.359512 157.744979 440.504192 151.891092 L 417.990644 129.36428 C 412.876787 124.276709 404.90506 123.536671 398.952955 127.559556 L 351.633524 159.751228 L 383.575032 112.099769 C 387.589117 106.139055 386.817283 98.197413 381.744687 93.150239 L 332.924072 44.301748 C 328.387863 39.779735 321.534313 38.640761 315.792652 41.375974 L 307.372581 45.445151 L 311.39495 36.505123 C 313.954639 30.816015 312.718662 24.115507 308.348722 19.715914 L 293.009605 4.374863 C 287.154285 -1.479024 277.628462 -1.479881 271.788634 4.388866 L 152.727506 123.462576 L 321.459017 292.174972 Z M 440.477658 173.100034 " transform="matrix(0.0918553,0.00287945,0.00287761,-0.0996374,3.744796,49.240631)"/>
<path style="fill-rule:nonzero;fill:rgb(96.470588%,96.078432%,95.686275%);fill-opacity:1;stroke-width:9.925757;stroke-linecap:butt;stroke-linejoin:miter;stroke:rgb(46.666667%,46.27451%,48.235294%);stroke-opacity:1;stroke-miterlimit:4;" d="M 130.557083 145.638965 L 96.094998 180.084028 C 93.284985 182.903964 91.720151 186.700796 91.679965 190.698507 C 91.683493 194.658277 93.263972 198.506802 96.110952 201.294197 L 128.767239 233.993696 C 135.076425 240.291951 138.120505 249.004942 137.163383 257.83753 C 136.205034 266.709287 131.324783 274.526793 123.817354 279.328027 C 27.745876 340.572803 18.790032 349.527075 15.848874 352.460835 C -5.267487 373.569956 -5.281443 407.95202 15.830473 429.066164 C 36.984876 450.181536 71.346802 450.15525 92.420676 429.044901 C 95.361834 426.111141 104.360165 417.158097 165.588546 321.072779 C 170.374005 313.566171 178.180075 308.734363 187.056773 307.736344 C 195.932244 306.777495 204.597578 309.811446 210.906764 316.109701 L 243.605539 348.810427 C 249.460859 354.664314 258.944195 354.663943 264.784022 348.795196 L 299.289821 314.312192 Z M 70.044867 404.836269 C 61.790913 413.105142 48.352545 413.108829 40.064078 404.832348 C 31.775611 396.555867 31.771622 383.108561 40.068064 374.840916 C 48.364506 366.573271 61.760387 366.568356 70.048854 374.844837 C 78.337321 383.121319 78.342536 396.529455 70.044867 404.836269 Z M 70.044867 404.836269 " transform="matrix(0.0918553,0.00287945,0.00287761,-0.0996374,3.744796,49.240631)"/>
</g>
</svg>
